<?xml version="1.0" encoding="UTF-8"?>
<!DOCTYPE svg PUBLIC "-//W3C//DTD SVG 1.1//EN"
    "http://www.w3.org/Graphics/SVG/1.1/DTD/svg11.dtd"><svg xmlns="http://www.w3.org/2000/svg" height="400.0000" stroke-opacity="1" viewBox="0 0 3000 400" font-size="1" width="3000.0000" xmlns:xlink="http://www.w3.org/1999/xlink" stroke="rgb(0,0,0)" version="1.1"><defs></defs><g stroke-linejoin="miter" stroke-opacity="1.0" fill-opacity="1.0" stroke="rgb(0,0,0)" stroke-width="0.0" fill="rgb(255,255,255)" stroke-linecap="butt" stroke-miterlimit="10.0"><path d="M 3000.0000,400.0000 l -0.0000,-400.0000 h -400.0000 l -0.0000,400.0000 Z"/></g><g stroke-linejoin="miter" stroke-opacity="1.0" fill-opacity="0.0" stroke="rgb(0,0,0)" stroke-width="4.381780460041329" fill="rgb(0,0,0)" stroke-linecap="butt" stroke-miterlimit="10.0"><path d="M 3000.0000,400.0000 l -0.0000,-400.0000 h -400.0000 l -0.0000,400.0000 Z"/></g><g stroke-linejoin="miter" stroke-opacity="1.0" fill-opacity="0.0" stroke="rgb(0,0,0)" stroke-width="4.381780460041329" fill="rgb(0,0,0)" stroke-linecap="butt" stroke-miterlimit="10.0"><path d="M 2936.0000,120.0000 c 0.0000,-1.1046 -0.8954,-2.0000 -2.0000 -2.0000c -1.1046,-0.0000 -2.0000,0.8954 -2.0000 2.0000c -0.0000,1.1046 0.8954,2.0000 2.0000 2.0000c 1.1046,0.0000 2.0000,-0.8954 2.0000 -2.0000Z"/></g><g stroke-linejoin="miter" stroke-opacity="1.0" fill-opacity="1.0" font-size="20.0px" stroke="rgb(0,0,0)" stroke-width="4.381780460041329" fill="rgb(0,0,0)" stroke-linecap="butt" stroke-miterlimit="10.0"><text dominant-baseline="middle" transform="matrix(1.0000,0.0000,0.0000,1.0000,2920.0000,120.0000)" stroke="none" text-anchor="middle">4</text></g><g stroke-linejoin="miter" stroke-opacity="1.0" fill-opacity="0.0" stroke="rgb(0,0,0)" stroke-width="4.381780460041329" fill="rgb(0,0,0)" stroke-linecap="butt" stroke-miterlimit="10.0"><path d="M 2656.0000,160.0000 c 0.0000,-1.1046 -0.8954,-2.0000 -2.0000 -2.0000c -1.1046,-0.0000 -2.0000,0.8954 -2.0000 2.0000c -0.0000,1.1046 0.8954,2.0000 2.0000 2.0000c 1.1046,0.0000 2.0000,-0.8954 2.0000 -2.0000Z"/></g><g stroke-linejoin="miter" stroke-opacity="1.0" fill-opacity="1.0" font-size="20.0px" stroke="rgb(0,0,0)" stroke-width="4.381780460041329" fill="rgb(0,0,0)" stroke-linecap="butt" stroke-miterlimit="10.0"><text dominant-baseline="middle" transform="matrix(1.0000,0.0000,0.0000,1.0000,2640.0000,160.0000)" stroke="none" text-anchor="middle">3</text></g><g stroke-linejoin="miter" stroke-opacity="1.0" fill-opacity="0.0" stroke="rgb(0,0,0)" stroke-width="4.381780460041329" fill="rgb(0,0,0)" stroke-linecap="butt" stroke-miterlimit="10.0"><path d="M 2896.0000,80.0000 c 0.0000,-1.1046 -0.8954,-2.0000 -2.0000 -2.0000c -1.1046,-0.0000 -2.0000,0.8954 -2.0000 2.0000c -0.0000,1.1046 0.8954,2.0000 2.0000 2.0000c 1.1046,0.0000 2.0000,-0.8954 2.0000 -2.0000Z"/></g><g stroke-linejoin="miter" stroke-opacity="1.0" fill-opacity="1.0" font-size="20.0px" stroke="rgb(0,0,0)" stroke-width="4.381780460041329" fill="rgb(0,0,0)" stroke-linecap="butt" stroke-miterlimit="10.0"><text dominant-baseline="middle" transform="matrix(1.0000,0.0000,0.0000,1.0000,2880.0000,80.0000)" stroke="none" text-anchor="middle">2</text></g><g stroke-linejoin="miter" stroke-opacity="1.0" fill-opacity="0.0" stroke="rgb(0,0,0)" stroke-width="4.381780460041329" fill="rgb(0,0,0)" stroke-linecap="butt" stroke-miterlimit="10.0"><path d="M 2656.0000,320.0000 c 0.0000,-1.1046 -0.8954,-2.0000 -2.0000 -2.0000c -1.1046,-0.0000 -2.0000,0.8954 -2.0000 2.0000c -0.0000,1.1046 0.8954,2.0000 2.0000 2.0000c 1.1046,0.0000 2.0000,-0.8954 2.0000 -2.0000Z"/></g><g stroke-linejoin="miter" stroke-opacity="1.0" fill-opacity="1.0" font-size="20.0px" stroke="rgb(0,0,0)" stroke-width="4.381780460041329" fill="rgb(0,0,0)" stroke-linecap="butt" stroke-miterlimit="10.0"><text dominant-baseline="middle" transform="matrix(1.0000,0.0000,0.0000,1.0000,2640.0000,320.0000)" stroke="none" text-anchor="middle">1</text></g><g stroke-linejoin="miter" stroke-opacity="1.0" fill-opacity="0.0" stroke="rgb(0,0,0)" stroke-width="4.381780460041329" fill="rgb(0,0,0)" stroke-linecap="butt" stroke-miterlimit="10.0"><path d="M 2816.0000,280.0000 c 0.0000,-1.1046 -0.8954,-2.0000 -2.0000 -2.0000c -1.1046,-0.0000 -2.0000,0.8954 -2.0000 2.0000c -0.0000,1.1046 0.8954,2.0000 2.0000 2.0000c 1.1046,0.0000 2.0000,-0.8954 2.0000 -2.0000Z"/></g><g stroke-linejoin="miter" stroke-opacity="1.0" fill-opacity="1.0" font-size="20.0px" stroke="rgb(0,0,0)" stroke-width="4.381780460041329" fill="rgb(0,0,0)" stroke-linecap="butt" stroke-miterlimit="10.0"><text dominant-baseline="middle" transform="matrix(1.0000,0.0000,0.0000,1.0000,2800.0000,280.0000)" stroke="none" text-anchor="middle">0</text></g><g stroke-linejoin="miter" stroke-opacity="1.0" fill-opacity="1.0" font-size="40.0px" stroke="rgb(0,0,0)" stroke-width="4.381780460041329" fill="rgb(0,0,0)" stroke-linecap="butt" stroke-miterlimit="10.0"><text dominant-baseline="middle" transform="matrix(1.0000,0.0000,0.0000,1.0000,2560.0000,400.0000)" stroke="none" text-anchor="middle">3</text></g><g stroke-linejoin="miter" stroke-opacity="1.0" fill-opacity="1.0" stroke="rgb(0,0,0)" stroke-width="0.0" fill="rgb(255,255,255)" stroke-linecap="butt" stroke-miterlimit="10.0"><path d="M 2360.0000,400.0000 l -0.0000,-400.0000 h -400.0000 l -0.0000,400.0000 Z"/></g><g stroke-linejoin="miter" stroke-opacity="1.0" fill-opacity="0.0" stroke="rgb(0,0,0)" stroke-width="4.381780460041329" fill="rgb(0,0,0)" stroke-linecap="butt" stroke-miterlimit="10.0"><path d="M 2360.0000,400.0000 l -0.0000,-400.0000 h -400.0000 l -0.0000,400.0000 Z"/></g><g stroke-linejoin="miter" stroke-opacity="1.0" fill-opacity="0.0" stroke="rgb(0,0,0)" stroke-width="4.381780460041329" fill="rgb(0,0,0)" stroke-linecap="butt" stroke-miterlimit="10.0"><path d="M 2216.0000,320.0000 c 0.0000,-1.1046 -0.8954,-2.0000 -2.0000 -2.0000c -1.1046,-0.0000 -2.0000,0.8954 -2.0000 2.0000c -0.0000,1.1046 0.8954,2.0000 2.0000 2.0000c 1.1046,0.0000 2.0000,-0.8954 2.0000 -2.0000Z"/></g><g stroke-linejoin="miter" stroke-opacity="1.0" fill-opacity="1.0" font-size="20.0px" stroke="rgb(0,0,0)" stroke-width="4.381780460041329" fill="rgb(0,0,0)" stroke-linecap="butt" stroke-miterlimit="10.0"><text dominant-baseline="middle" transform="matrix(1.0000,0.0000,0.0000,1.0000,2200.0000,320.0000)" stroke="none" text-anchor="middle">4</text></g><g stroke-linejoin="miter" stroke-opacity="1.0" fill-opacity="0.0" stroke="rgb(0,0,0)" stroke-width="4.381780460041329" fill="rgb(0,0,0)" stroke-linecap="butt" stroke-miterlimit="10.0"><path d="M 2336.0000,80.0000 c 0.0000,-1.1046 -0.8954,-2.0000 -2.0000 -2.0000c -1.1046,-0.0000 -2.0000,0.8954 -2.0000 2.0000c -0.0000,1.1046 0.8954,2.0000 2.0000 2.0000c 1.1046,0.0000 2.0000,-0.8954 2.0000 -2.0000Z"/></g><g stroke-linejoin="miter" stroke-opacity="1.0" fill-opacity="1.0" font-size="20.0px" stroke="rgb(0,0,0)" stroke-width="4.381780460041329" fill="rgb(0,0,0)" stroke-linecap="butt" stroke-miterlimit="10.0"><text dominant-baseline="middle" transform="matrix(1.0000,0.0000,0.0000,1.0000,2320.0000,80.0000)" stroke="none" text-anchor="middle">3</text></g><g stroke-linejoin="miter" stroke-opacity="1.0" fill-opacity="0.0" stroke="rgb(0,0,0)" stroke-width="4.381780460041329" fill="rgb(0,0,0)" stroke-linecap="butt" stroke-miterlimit="10.0"><path d="M 2256.0000,280.0000 c 0.0000,-1.1046 -0.8954,-2.0000 -2.0000 -2.0000c -1.1046,-0.0000 -2.0000,0.8954 -2.0000 2.0000c -0.0000,1.1046 0.8954,2.0000 2.0000 2.0000c 1.1046,0.0000 2.0000,-0.8954 2.0000 -2.0000Z"/></g><g stroke-linejoin="miter" stroke-opacity="1.0" fill-opacity="1.0" font-size="20.0px" stroke="rgb(0,0,0)" stroke-width="4.381780460041329" fill="rgb(0,0,0)" stroke-linecap="butt" stroke-miterlimit="10.0"><text dominant-baseline="middle" transform="matrix(1.0000,0.0000,0.0000,1.0000,2240.0000,280.0000)" stroke="none" text-anchor="middle">2</text></g><g stroke-linejoin="miter" stroke-opacity="1.0" fill-opacity="0.0" stroke="rgb(0,0,0)" stroke-width="4.381780460041329" fill="rgb(0,0,0)" stroke-linecap="butt" stroke-miterlimit="10.0"><path d="M 2296.0000,320.0000 c 0.0000,-1.1046 -0.8954,-2.0000 -2.0000 -2.0000c -1.1046,-0.0000 -2.0000,0.8954 -2.0000 2.0000c -0.0000,1.1046 0.8954,2.0000 2.0000 2.0000c 1.1046,0.0000 2.0000,-0.8954 2.0000 -2.0000Z"/></g><g stroke-linejoin="miter" stroke-opacity="1.0" fill-opacity="1.0" font-size="20.0px" stroke="rgb(0,0,0)" stroke-width="4.381780460041329" fill="rgb(0,0,0)" stroke-linecap="butt" stroke-miterlimit="10.0"><text dominant-baseline="middle" transform="matrix(1.0000,0.0000,0.0000,1.0000,2280.0000,320.0000)" stroke="none" text-anchor="middle">1</text></g><g stroke-linejoin="miter" stroke-opacity="1.0" fill-opacity="0.0" stroke="rgb(0,0,0)" stroke-width="4.381780460041329" fill="rgb(0,0,0)" stroke-linecap="butt" stroke-miterlimit="10.0"><path d="M 2176.0000,120.0000 c 0.0000,-1.1046 -0.8954,-2.0000 -2.0000 -2.0000c -1.1046,-0.0000 -2.0000,0.8954 -2.0000 2.0000c -0.0000,1.1046 0.8954,2.0000 2.0000 2.0000c 1.1046,0.0000 2.0000,-0.8954 2.0000 -2.0000Z"/></g><g stroke-linejoin="miter" stroke-opacity="1.0" fill-opacity="1.0" font-size="20.0px" stroke="rgb(0,0,0)" stroke-width="4.381780460041329" fill="rgb(0,0,0)" stroke-linecap="butt" stroke-miterlimit="10.0"><text dominant-baseline="middle" transform="matrix(1.0000,0.0000,0.0000,1.0000,2160.0000,120.0000)" stroke="none" text-anchor="middle">0</text></g><g stroke-linejoin="miter" stroke-opacity="1.0" fill-opacity="1.0" font-size="40.0px" stroke="rgb(0,0,0)" stroke-width="4.381780460041329" fill="rgb(0,0,0)" stroke-linecap="butt" stroke-miterlimit="10.0"><text dominant-baseline="middle" transform="matrix(1.0000,0.0000,0.0000,1.0000,1920.0000,400.0000)" stroke="none" text-anchor="middle">6</text></g><g stroke-linejoin="miter" stroke-opacity="1.0" fill-opacity="1.0" stroke="rgb(0,0,0)" stroke-width="0.0" fill="rgb(255,255,255)" stroke-linecap="butt" stroke-miterlimit="10.0"><path d="M 1720.0000,400.0000 l -0.0000,-400.0000 h -400.0000 l -0.0000,400.0000 Z"/></g><g stroke-linejoin="miter" stroke-opacity="1.0" fill-opacity="0.0" stroke="rgb(0,0,0)" stroke-width="4.381780460041329" fill="rgb(0,0,0)" stroke-linecap="butt" stroke-miterlimit="10.0"><path d="M 1720.0000,400.0000 l -0.0000,-400.0000 h -400.0000 l -0.0000,400.0000 Z"/></g><g stroke-linejoin="miter" stroke-opacity="1.0" fill-opacity="0.0" stroke="rgb(0,0,0)" stroke-width="4.381780460041329" fill="rgb(0,0,0)" stroke-linecap="butt" stroke-miterlimit="10.0"><path d="M 1416.0000,120.0000 c 0.0000,-1.1046 -0.8954,-2.0000 -2.0000 -2.0000c -1.1046,-0.0000 -2.0000,0.8954 -2.0000 2.0000c -0.0000,1.1046 0.8954,2.0000 2.0000 2.0000c 1.1046,0.0000 2.0000,-0.8954 2.0000 -2.0000Z"/></g><g stroke-linejoin="miter" stroke-opacity="1.0" fill-opacity="1.0" font-size="20.0px" stroke="rgb(0,0,0)" stroke-width="4.381780460041329" fill="rgb(0,0,0)" stroke-linecap="butt" stroke-miterlimit="10.0"><text dominant-baseline="middle" transform="matrix(1.0000,0.0000,0.0000,1.0000,1400.0000,120.0000)" stroke="none" text-anchor="middle">4</text></g><g stroke-linejoin="miter" stroke-opacity="1.0" fill-opacity="0.0" stroke="rgb(0,0,0)" stroke-width="4.381780460041329" fill="rgb(0,0,0)" stroke-linecap="butt" stroke-miterlimit="10.0"><path d="M 1576.0000,160.0000 c 0.0000,-1.1046 -0.8954,-2.0000 -2.0000 -2.0000c -1.1046,-0.0000 -2.0000,0.8954 -2.0000 2.0000c -0.0000,1.1046 0.8954,2.0000 2.0000 2.0000c 1.1046,0.0000 2.0000,-0.8954 2.0000 -2.0000Z"/></g><g stroke-linejoin="miter" stroke-opacity="1.0" fill-opacity="1.0" font-size="20.0px" stroke="rgb(0,0,0)" stroke-width="4.381780460041329" fill="rgb(0,0,0)" stroke-linecap="butt" stroke-miterlimit="10.0"><text dominant-baseline="middle" transform="matrix(1.0000,0.0000,0.0000,1.0000,1560.0000,160.0000)" stroke="none" text-anchor="middle">3</text></g><g stroke-linejoin="miter" stroke-opacity="1.0" fill-opacity="0.0" stroke="rgb(0,0,0)" stroke-width="4.381780460041329" fill="rgb(0,0,0)" stroke-linecap="butt" stroke-miterlimit="10.0"><path d="M 1456.0000,320.0000 c 0.0000,-1.1046 -0.8954,-2.0000 -2.0000 -2.0000c -1.1046,-0.0000 -2.0000,0.8954 -2.0000 2.0000c -0.0000,1.1046 0.8954,2.0000 2.0000 2.0000c 1.1046,0.0000 2.0000,-0.8954 2.0000 -2.0000Z"/></g><g stroke-linejoin="miter" stroke-opacity="1.0" fill-opacity="1.0" font-size="20.0px" stroke="rgb(0,0,0)" stroke-width="4.381780460041329" fill="rgb(0,0,0)" stroke-linecap="butt" stroke-miterlimit="10.0"><text dominant-baseline="middle" transform="matrix(1.0000,0.0000,0.0000,1.0000,1440.0000,320.0000)" stroke="none" text-anchor="middle">2</text></g><g stroke-linejoin="miter" stroke-opacity="1.0" fill-opacity="0.0" stroke="rgb(0,0,0)" stroke-width="4.381780460041329" fill="rgb(0,0,0)" stroke-linecap="butt" stroke-miterlimit="10.0"><path d="M 1536.0000,280.0000 c 0.0000,-1.1046 -0.8954,-2.0000 -2.0000 -2.0000c -1.1046,-0.0000 -2.0000,0.8954 -2.0000 2.0000c -0.0000,1.1046 0.8954,2.0000 2.0000 2.0000c 1.1046,0.0000 2.0000,-0.8954 2.0000 -2.0000Z"/></g><g stroke-linejoin="miter" stroke-opacity="1.0" fill-opacity="1.0" font-size="20.0px" stroke="rgb(0,0,0)" stroke-width="4.381780460041329" fill="rgb(0,0,0)" stroke-linecap="butt" stroke-miterlimit="10.0"><text dominant-baseline="middle" transform="matrix(1.0000,0.0000,0.0000,1.0000,1520.0000,280.0000)" stroke="none" text-anchor="middle">1</text></g><g stroke-linejoin="miter" stroke-opacity="1.0" fill-opacity="0.0" stroke="rgb(0,0,0)" stroke-width="4.381780460041329" fill="rgb(0,0,0)" stroke-linecap="butt" stroke-miterlimit="10.0"><path d="M 1416.0000,80.0000 c 0.0000,-1.1046 -0.8954,-2.0000 -2.0000 -2.0000c -1.1046,-0.0000 -2.0000,0.8954 -2.0000 2.0000c -0.0000,1.1046 0.8954,2.0000 2.0000 2.0000c 1.1046,0.0000 2.0000,-0.8954 2.0000 -2.0000Z"/></g><g stroke-linejoin="miter" stroke-opacity="1.0" fill-opacity="1.0" font-size="20.0px" stroke="rgb(0,0,0)" stroke-width="4.381780460041329" fill="rgb(0,0,0)" stroke-linecap="butt" stroke-miterlimit="10.0"><text dominant-baseline="middle" transform="matrix(1.0000,0.0000,0.0000,1.0000,1400.0000,80.0000)" stroke="none" text-anchor="middle">0</text></g><g stroke-linejoin="miter" stroke-opacity="1.0" fill-opacity="1.0" font-size="40.0px" stroke="rgb(0,0,0)" stroke-width="4.381780460041329" fill="rgb(0,0,0)" stroke-linecap="butt" stroke-miterlimit="10.0"><text dominant-baseline="middle" transform="matrix(1.0000,0.0000,0.0000,1.0000,1280.0000,400.0000)" stroke="none" text-anchor="middle">8</text></g><g stroke-linejoin="miter" stroke-opacity="1.0" fill-opacity="1.0" stroke="rgb(0,0,0)" stroke-width="0.0" fill="rgb(255,255,255)" stroke-linecap="butt" stroke-miterlimit="10.0"><path d="M 1080.0000,400.0000 l -0.0000,-400.0000 h -400.0000 l -0.0000,400.0000 Z"/></g><g stroke-linejoin="miter" stroke-opacity="1.0" fill-opacity="0.0" stroke="rgb(0,0,0)" stroke-width="4.381780460041329" fill="rgb(0,0,0)" stroke-linecap="butt" stroke-miterlimit="10.0"><path d="M 1080.0000,400.0000 l -0.0000,-400.0000 h -400.0000 l -0.0000,400.0000 Z"/></g><g stroke-linejoin="miter" stroke-opacity="1.0" fill-opacity="0.0" stroke="rgb(0,0,0)" stroke-width="4.381780460041329" fill="rgb(0,0,0)" stroke-linecap="butt" stroke-miterlimit="10.0"><path d="M 936.0000,240.0000 c 0.0000,-1.1046 -0.8954,-2.0000 -2.0000 -2.0000c -1.1046,-0.0000 -2.0000,0.8954 -2.0000 2.0000c -0.0000,1.1046 0.8954,2.0000 2.0000 2.0000c 1.1046,0.0000 2.0000,-0.8954 2.0000 -2.0000Z"/></g><g stroke-linejoin="miter" stroke-opacity="1.0" fill-opacity="1.0" font-size="20.0px" stroke="rgb(0,0,0)" stroke-width="4.381780460041329" fill="rgb(0,0,0)" stroke-linecap="butt" stroke-miterlimit="10.0"><text dominant-baseline="middle" transform="matrix(1.0000,0.0000,0.0000,1.0000,920.0000,240.0000)" stroke="none" text-anchor="middle">4</text></g><g stroke-linejoin="miter" stroke-opacity="1.0" fill-opacity="0.0" stroke="rgb(0,0,0)" stroke-width="4.381780460041329" fill="rgb(0,0,0)" stroke-linecap="butt" stroke-miterlimit="10.0"><path d="M 776.0000,200.0000 c 0.0000,-1.1046 -0.8954,-2.0000 -2.0000 -2.0000c -1.1046,-0.0000 -2.0000,0.8954 -2.0000 2.0000c -0.0000,1.1046 0.8954,2.0000 2.0000 2.0000c 1.1046,0.0000 2.0000,-0.8954 2.0000 -2.0000Z"/></g><g stroke-linejoin="miter" stroke-opacity="1.0" fill-opacity="1.0" font-size="20.0px" stroke="rgb(0,0,0)" stroke-width="4.381780460041329" fill="rgb(0,0,0)" stroke-linecap="butt" stroke-miterlimit="10.0"><text dominant-baseline="middle" transform="matrix(1.0000,0.0000,0.0000,1.0000,760.0000,200.0000)" stroke="none" text-anchor="middle">3</text></g><g stroke-linejoin="miter" stroke-opacity="1.0" fill-opacity="0.0" stroke="rgb(0,0,0)" stroke-width="4.381780460041329" fill="rgb(0,0,0)" stroke-linecap="butt" stroke-miterlimit="10.0"><path d="M 896.0000,80.0000 c 0.0000,-1.1046 -0.8954,-2.0000 -2.0000 -2.0000c -1.1046,-0.0000 -2.0000,0.8954 -2.0000 2.0000c -0.0000,1.1046 0.8954,2.0000 2.0000 2.0000c 1.1046,0.0000 2.0000,-0.8954 2.0000 -2.0000Z"/></g><g stroke-linejoin="miter" stroke-opacity="1.0" fill-opacity="1.0" font-size="20.0px" stroke="rgb(0,0,0)" stroke-width="4.381780460041329" fill="rgb(0,0,0)" stroke-linecap="butt" stroke-miterlimit="10.0"><text dominant-baseline="middle" transform="matrix(1.0000,0.0000,0.0000,1.0000,880.0000,80.0000)" stroke="none" text-anchor="middle">2</text></g><g stroke-linejoin="miter" stroke-opacity="1.0" fill-opacity="0.0" stroke="rgb(0,0,0)" stroke-width="4.381780460041329" fill="rgb(0,0,0)" stroke-linecap="butt" stroke-miterlimit="10.0"><path d="M 1056.0000,240.0000 c 0.0000,-1.1046 -0.8954,-2.0000 -2.0000 -2.0000c -1.1046,-0.0000 -2.0000,0.8954 -2.0000 2.0000c -0.0000,1.1046 0.8954,2.0000 2.0000 2.0000c 1.1046,0.0000 2.0000,-0.8954 2.0000 -2.0000Z"/></g><g stroke-linejoin="miter" stroke-opacity="1.0" fill-opacity="1.0" font-size="20.0px" stroke="rgb(0,0,0)" stroke-width="4.381780460041329" fill="rgb(0,0,0)" stroke-linecap="butt" stroke-miterlimit="10.0"><text dominant-baseline="middle" transform="matrix(1.0000,0.0000,0.0000,1.0000,1040.0000,240.0000)" stroke="none" text-anchor="middle">1</text></g><g stroke-linejoin="miter" stroke-opacity="1.0" fill-opacity="0.0" stroke="rgb(0,0,0)" stroke-width="4.381780460041329" fill="rgb(0,0,0)" stroke-linecap="butt" stroke-miterlimit="10.0"><path d="M 976.0000,320.0000 c 0.0000,-1.1046 -0.8954,-2.0000 -2.0000 -2.0000c -1.1046,-0.0000 -2.0000,0.8954 -2.0000 2.0000c -0.0000,1.1046 0.8954,2.0000 2.0000 2.0000c 1.1046,0.0000 2.0000,-0.8954 2.0000 -2.0000Z"/></g><g stroke-linejoin="miter" stroke-opacity="1.0" fill-opacity="1.0" font-size="20.0px" stroke="rgb(0,0,0)" stroke-width="4.381780460041329" fill="rgb(0,0,0)" stroke-linecap="butt" stroke-miterlimit="10.0"><text dominant-baseline="middle" transform="matrix(1.0000,0.0000,0.0000,1.0000,960.0000,320.0000)" stroke="none" text-anchor="middle">0</text></g><g stroke-linejoin="miter" stroke-opacity="1.0" fill-opacity="1.0" font-size="40.0px" stroke="rgb(0,0,0)" stroke-width="4.381780460041329" fill="rgb(0,0,0)" stroke-linecap="butt" stroke-miterlimit="10.0"><text dominant-baseline="middle" transform="matrix(1.0000,0.0000,0.0000,1.0000,640.0000,400.0000)" stroke="none" text-anchor="middle">9</text></g><g stroke-linejoin="miter" stroke-opacity="1.0" fill-opacity="1.0" stroke="rgb(0,0,0)" stroke-width="0.0" fill="rgb(255,255,255)" stroke-linecap="butt" stroke-miterlimit="10.0"><path d="M 440.0000,400.0000 l -0.0000,-400.0000 h -400.0000 l -0.0000,400.0000 Z"/></g><g stroke-linejoin="miter" stroke-opacity="1.0" fill-opacity="0.0" stroke="rgb(0,0,0)" stroke-width="4.381780460041329" fill="rgb(0,0,0)" stroke-linecap="butt" stroke-miterlimit="10.0"><path d="M 440.0000,400.0000 l -0.0000,-400.0000 h -400.0000 l -0.0000,400.0000 Z"/></g><g stroke-linejoin="miter" stroke-opacity="1.0" fill-opacity="0.0" stroke="rgb(0,0,0)" stroke-width="4.381780460041329" fill="rgb(0,0,0)" stroke-linecap="butt" stroke-miterlimit="10.0"><path d="M 136.0000,120.0000 c 0.0000,-1.1046 -0.8954,-2.0000 -2.0000 -2.0000c -1.1046,-0.0000 -2.0000,0.8954 -2.0000 2.0000c -0.0000,1.1046 0.8954,2.0000 2.0000 2.0000c 1.1046,0.0000 2.0000,-0.8954 2.0000 -2.0000Z"/></g><g stroke-linejoin="miter" stroke-opacity="1.0" fill-opacity="1.0" font-size="20.0px" stroke="rgb(0,0,0)" stroke-width="4.381780460041329" fill="rgb(0,0,0)" stroke-linecap="butt" stroke-miterlimit="10.0"><text dominant-baseline="middle" transform="matrix(1.0000,0.0000,0.0000,1.0000,120.0000,120.0000)" stroke="none" text-anchor="middle">4</text></g><g stroke-linejoin="miter" stroke-opacity="1.0" fill-opacity="0.0" stroke="rgb(0,0,0)" stroke-width="4.381780460041329" fill="rgb(0,0,0)" stroke-linecap="butt" stroke-miterlimit="10.0"><path d="M 376.0000,240.0000 c 0.0000,-1.1046 -0.8954,-2.0000 -2.0000 -2.0000c -1.1046,-0.0000 -2.0000,0.8954 -2.0000 2.0000c -0.0000,1.1046 0.8954,2.0000 2.0000 2.0000c 1.1046,0.0000 2.0000,-0.8954 2.0000 -2.0000Z"/></g><g stroke-linejoin="miter" stroke-opacity="1.0" fill-opacity="1.0" font-size="20.0px" stroke="rgb(0,0,0)" stroke-width="4.381780460041329" fill="rgb(0,0,0)" stroke-linecap="butt" stroke-miterlimit="10.0"><text dominant-baseline="middle" transform="matrix(1.0000,0.0000,0.0000,1.0000,360.0000,240.0000)" stroke="none" text-anchor="middle">3</text></g><g stroke-linejoin="miter" stroke-opacity="1.0" fill-opacity="0.0" stroke="rgb(0,0,0)" stroke-width="4.381780460041329" fill="rgb(0,0,0)" stroke-linecap="butt" stroke-miterlimit="10.0"><path d="M 256.0000,160.0000 c 0.0000,-1.1046 -0.8954,-2.0000 -2.0000 -2.0000c -1.1046,-0.0000 -2.0000,0.8954 -2.0000 2.0000c -0.0000,1.1046 0.8954,2.0000 2.0000 2.0000c 1.1046,0.0000 2.0000,-0.8954 2.0000 -2.0000Z"/></g><g stroke-linejoin="miter" stroke-opacity="1.0" fill-opacity="1.0" font-size="20.0px" stroke="rgb(0,0,0)" stroke-width="4.381780460041329" fill="rgb(0,0,0)" stroke-linecap="butt" stroke-miterlimit="10.0"><text dominant-baseline="middle" transform="matrix(1.0000,0.0000,0.0000,1.0000,240.0000,160.0000)" stroke="none" text-anchor="middle">2</text></g><g stroke-linejoin="miter" stroke-opacity="1.0" fill-opacity="0.0" stroke="rgb(0,0,0)" stroke-width="4.381780460041329" fill="rgb(0,0,0)" stroke-linecap="butt" stroke-miterlimit="10.0"><path d="M 336.0000,280.0000 c 0.0000,-1.1046 -0.8954,-2.0000 -2.0000 -2.0000c -1.1046,-0.0000 -2.0000,0.8954 -2.0000 2.0000c -0.0000,1.1046 0.8954,2.0000 2.0000 2.0000c 1.1046,0.0000 2.0000,-0.8954 2.0000 -2.0000Z"/></g><g stroke-linejoin="miter" stroke-opacity="1.0" fill-opacity="1.0" font-size="20.0px" stroke="rgb(0,0,0)" stroke-width="4.381780460041329" fill="rgb(0,0,0)" stroke-linecap="butt" stroke-miterlimit="10.0"><text dominant-baseline="middle" transform="matrix(1.0000,0.0000,0.0000,1.0000,320.0000,280.0000)" stroke="none" text-anchor="middle">1</text></g><g stroke-linejoin="miter" stroke-opacity="1.0" fill-opacity="0.0" stroke="rgb(0,0,0)" stroke-width="4.381780460041329" fill="rgb(0,0,0)" stroke-linecap="butt" stroke-miterlimit="10.0"><path d="M 296.0000,160.0000 c 0.0000,-1.1046 -0.8954,-2.0000 -2.0000 -2.0000c -1.1046,-0.0000 -2.0000,0.8954 -2.0000 2.0000c -0.0000,1.1046 0.8954,2.0000 2.0000 2.0000c 1.1046,0.0000 2.0000,-0.8954 2.0000 -2.0000Z"/></g><g stroke-linejoin="miter" stroke-opacity="1.0" fill-opacity="1.0" font-size="20.0px" stroke="rgb(0,0,0)" stroke-width="4.381780460041329" fill="rgb(0,0,0)" stroke-linecap="butt" stroke-miterlimit="10.0"><text dominant-baseline="middle" transform="matrix(1.0000,0.0000,0.0000,1.0000,280.0000,160.0000)" stroke="none" text-anchor="middle">0</text></g><g stroke-linejoin="miter" stroke-opacity="1.0" fill-opacity="1.0" font-size="40.0px" stroke="rgb(0,0,0)" stroke-width="4.381780460041329" fill="rgb(0,0,0)" stroke-linecap="butt" stroke-miterlimit="10.0"><text dominant-baseline="middle" transform="matrix(1.0000,0.0000,0.0000,1.0000,0.0000,400.0000)" stroke="none" text-anchor="middle">10</text></g></svg>