<?xml version="1.0" encoding="UTF-8"?>
<!DOCTYPE svg PUBLIC "-//W3C//DTD SVG 1.1//EN"
    "http://www.w3.org/Graphics/SVG/1.1/DTD/svg11.dtd"><svg xmlns="http://www.w3.org/2000/svg" height="400.0000" stroke-opacity="1" viewBox="0 0 399 400" font-size="1" width="399.2016" xmlns:xlink="http://www.w3.org/1999/xlink" stroke="rgb(0,0,0)" version="1.1"><defs></defs><g stroke-linejoin="miter" stroke-opacity="1.0" fill-opacity="1.0" stroke="rgb(0,0,0)" stroke-width="0.0" fill="rgb(255,255,255)" stroke-linecap="butt" stroke-miterlimit="10.0"><path d="M 399.2016,400.0000 l -0.0000,-399.2016 h -399.2016 l -0.0000,399.2016 Z"/></g><g stroke-linejoin="miter" stroke-opacity="1.0" fill-opacity="0.0" stroke="rgb(0,0,0)" stroke-width="1.5984023960069869" fill="rgb(0,0,0)" stroke-linecap="butt" stroke-miterlimit="10.0"><path d="M 399.2016,400.0000 l -0.0000,-399.2016 h -399.2016 l -0.0000,399.2016 Z"/></g><g stroke-linejoin="miter" stroke-opacity="1.0" fill-opacity="0.0" stroke="rgb(0,0,0)" stroke-width="1.5984023960069869" fill="rgb(0,0,0)" stroke-linecap="butt" stroke-miterlimit="10.0"><path d="M 74.6507,18.7625 c 0.0000,-1.1024 -0.8936,-1.9960 -1.9960 -1.9960c -1.1024,-0.0000 -1.9960,0.8936 -1.9960 1.9960c -0.0000,1.1024 0.8936,1.9960 1.9960 1.9960c 1.1024,0.0000 1.9960,-0.8936 1.9960 -1.9960Z"/></g><g stroke-linejoin="miter" stroke-opacity="1.0" fill-opacity="1.0" font-size="19.960079840319363px" stroke="rgb(0,0,0)" stroke-width="1.5984023960069869" fill="rgb(0,0,0)" stroke-linecap="butt" stroke-miterlimit="10.0"><text dominant-baseline="middle" transform="matrix(1.0000,0.0000,0.0000,1.0000,58.6826,18.7625)" stroke="none" text-anchor="middle">10</text></g><g stroke-linejoin="miter" stroke-opacity="1.0" fill-opacity="0.0" stroke="rgb(0,0,0)" stroke-width="1.5984023960069869" fill="rgb(0,0,0)" stroke-linecap="butt" stroke-miterlimit="10.0"><path d="M 219.1617,314.9701 c 0.0000,-1.1024 -0.8936,-1.9960 -1.9960 -1.9960c -1.1024,-0.0000 -1.9960,0.8936 -1.9960 1.9960c -0.0000,1.1024 0.8936,1.9960 1.9960 1.9960c 1.1024,0.0000 1.9960,-0.8936 1.9960 -1.9960Z"/></g><g stroke-linejoin="miter" stroke-opacity="1.0" fill-opacity="1.0" font-size="19.960079840319363px" stroke="rgb(0,0,0)" stroke-width="1.5984023960069869" fill="rgb(0,0,0)" stroke-linecap="butt" stroke-miterlimit="10.0"><text dominant-baseline="middle" transform="matrix(1.0000,0.0000,0.0000,1.0000,203.1936,314.9701)" stroke="none" text-anchor="middle">9</text></g><g stroke-linejoin="miter" stroke-opacity="1.0" fill-opacity="0.0" stroke="rgb(0,0,0)" stroke-width="1.5984023960069869" fill="rgb(0,0,0)" stroke-linecap="butt" stroke-miterlimit="10.0"><path d="M 337.3253,218.7625 c 0.0000,-1.1024 -0.8936,-1.9960 -1.9960 -1.9960c -1.1024,-0.0000 -1.9960,0.8936 -1.9960 1.9960c -0.0000,1.1024 0.8936,1.9960 1.9960 1.9960c 1.1024,0.0000 1.9960,-0.8936 1.9960 -1.9960Z"/></g><g stroke-linejoin="miter" stroke-opacity="1.0" fill-opacity="1.0" font-size="19.960079840319363px" stroke="rgb(0,0,0)" stroke-width="1.5984023960069869" fill="rgb(0,0,0)" stroke-linecap="butt" stroke-miterlimit="10.0"><text dominant-baseline="middle" transform="matrix(1.0000,0.0000,0.0000,1.0000,321.3573,218.7625)" stroke="none" text-anchor="middle">8</text></g><g stroke-linejoin="miter" stroke-opacity="1.0" fill-opacity="0.0" stroke="rgb(0,0,0)" stroke-width="1.5984023960069869" fill="rgb(0,0,0)" stroke-linecap="butt" stroke-miterlimit="10.0"><path d="M 264.2715,109.7804 c 0.0000,-1.1024 -0.8936,-1.9960 -1.9960 -1.9960c -1.1024,-0.0000 -1.9960,0.8936 -1.9960 1.9960c -0.0000,1.1024 0.8936,1.9960 1.9960 1.9960c 1.1024,0.0000 1.9960,-0.8936 1.9960 -1.9960Z"/></g><g stroke-linejoin="miter" stroke-opacity="1.0" fill-opacity="1.0" font-size="19.960079840319363px" stroke="rgb(0,0,0)" stroke-width="1.5984023960069869" fill="rgb(0,0,0)" stroke-linecap="butt" stroke-miterlimit="10.0"><text dominant-baseline="middle" transform="matrix(1.0000,0.0000,0.0000,1.0000,248.3034,109.7804)" stroke="none" text-anchor="middle">7</text></g><g stroke-linejoin="miter" stroke-opacity="1.0" fill-opacity="0.0" stroke="rgb(0,0,0)" stroke-width="1.5984023960069869" fill="rgb(0,0,0)" stroke-linecap="butt" stroke-miterlimit="10.0"><path d="M 89.8204,279.4411 c 0.0000,-1.1024 -0.8936,-1.9960 -1.9960 -1.9960c -1.1024,-0.0000 -1.9960,0.8936 -1.9960 1.9960c -0.0000,1.1024 0.8936,1.9960 1.9960 1.9960c 1.1024,0.0000 1.9960,-0.8936 1.9960 -1.9960Z"/></g><g stroke-linejoin="miter" stroke-opacity="1.0" fill-opacity="1.0" font-size="19.960079840319363px" stroke="rgb(0,0,0)" stroke-width="1.5984023960069869" fill="rgb(0,0,0)" stroke-linecap="butt" stroke-miterlimit="10.0"><text dominant-baseline="middle" transform="matrix(1.0000,0.0000,0.0000,1.0000,73.8523,279.4411)" stroke="none" text-anchor="middle">6</text></g><g stroke-linejoin="miter" stroke-opacity="1.0" fill-opacity="0.0" stroke="rgb(0,0,0)" stroke-width="1.5984023960069869" fill="rgb(0,0,0)" stroke-linecap="butt" stroke-miterlimit="10.0"><path d="M 87.0259,1.9960 c 0.0000,-1.1024 -0.8936,-1.9960 -1.9960 -1.9960c -1.1024,-0.0000 -1.9960,0.8936 -1.9960 1.9960c -0.0000,1.1024 0.8936,1.9960 1.9960 1.9960c 1.1024,0.0000 1.9960,-0.8936 1.9960 -1.9960Z"/></g><g stroke-linejoin="miter" stroke-opacity="1.0" fill-opacity="1.0" font-size="19.960079840319363px" stroke="rgb(0,0,0)" stroke-width="1.5984023960069869" fill="rgb(0,0,0)" stroke-linecap="butt" stroke-miterlimit="10.0"><text dominant-baseline="middle" transform="matrix(1.0000,0.0000,0.0000,1.0000,71.0579,1.9960)" stroke="none" text-anchor="middle">5</text></g><g stroke-linejoin="miter" stroke-opacity="1.0" fill-opacity="0.0" stroke="rgb(0,0,0)" stroke-width="1.5984023960069869" fill="rgb(0,0,0)" stroke-linecap="butt" stroke-miterlimit="10.0"><path d="M 366.0679,352.8942 c 0.0000,-1.1024 -0.8936,-1.9960 -1.9960 -1.9960c -1.1024,-0.0000 -1.9960,0.8936 -1.9960 1.9960c -0.0000,1.1024 0.8936,1.9960 1.9960 1.9960c 1.1024,0.0000 1.9960,-0.8936 1.9960 -1.9960Z"/></g><g stroke-linejoin="miter" stroke-opacity="1.0" fill-opacity="1.0" font-size="19.960079840319363px" stroke="rgb(0,0,0)" stroke-width="1.5984023960069869" fill="rgb(0,0,0)" stroke-linecap="butt" stroke-miterlimit="10.0"><text dominant-baseline="middle" transform="matrix(1.0000,0.0000,0.0000,1.0000,350.0998,352.8942)" stroke="none" text-anchor="middle">4</text></g><g stroke-linejoin="miter" stroke-opacity="1.0" fill-opacity="0.0" stroke="rgb(0,0,0)" stroke-width="1.5984023960069869" fill="rgb(0,0,0)" stroke-linecap="butt" stroke-miterlimit="10.0"><path d="M 165.6687,304.1916 c 0.0000,-1.1024 -0.8936,-1.9960 -1.9960 -1.9960c -1.1024,-0.0000 -1.9960,0.8936 -1.9960 1.9960c -0.0000,1.1024 0.8936,1.9960 1.9960 1.9960c 1.1024,0.0000 1.9960,-0.8936 1.9960 -1.9960Z"/></g><g stroke-linejoin="miter" stroke-opacity="1.0" fill-opacity="1.0" font-size="19.960079840319363px" stroke="rgb(0,0,0)" stroke-width="1.5984023960069869" fill="rgb(0,0,0)" stroke-linecap="butt" stroke-miterlimit="10.0"><text dominant-baseline="middle" transform="matrix(1.0000,0.0000,0.0000,1.0000,149.7006,304.1916)" stroke="none" text-anchor="middle">3</text></g><g stroke-linejoin="miter" stroke-opacity="1.0" fill-opacity="0.0" stroke="rgb(0,0,0)" stroke-width="1.5984023960069869" fill="rgb(0,0,0)" stroke-linecap="butt" stroke-miterlimit="10.0"><path d="M 237.5250,333.3333 c 0.0000,-1.1024 -0.8936,-1.9960 -1.9960 -1.9960c -1.1024,-0.0000 -1.9960,0.8936 -1.9960 1.9960c -0.0000,1.1024 0.8936,1.9960 1.9960 1.9960c 1.1024,0.0000 1.9960,-0.8936 1.9960 -1.9960Z"/></g><g stroke-linejoin="miter" stroke-opacity="1.0" fill-opacity="1.0" font-size="19.960079840319363px" stroke="rgb(0,0,0)" stroke-width="1.5984023960069869" fill="rgb(0,0,0)" stroke-linecap="butt" stroke-miterlimit="10.0"><text dominant-baseline="middle" transform="matrix(1.0000,0.0000,0.0000,1.0000,221.5569,333.3333)" stroke="none" text-anchor="middle">2</text></g><g stroke-linejoin="miter" stroke-opacity="1.0" fill-opacity="0.0" stroke="rgb(0,0,0)" stroke-width="1.5984023960069869" fill="rgb(0,0,0)" stroke-linecap="butt" stroke-miterlimit="10.0"><path d="M 22.3553,43.1138 c 0.0000,-1.1024 -0.8936,-1.9960 -1.9960 -1.9960c -1.1024,-0.0000 -1.9960,0.8936 -1.9960 1.9960c -0.0000,1.1024 0.8936,1.9960 1.9960 1.9960c 1.1024,0.0000 1.9960,-0.8936 1.9960 -1.9960Z"/></g><g stroke-linejoin="miter" stroke-opacity="1.0" fill-opacity="1.0" font-size="19.960079840319363px" stroke="rgb(0,0,0)" stroke-width="1.5984023960069869" fill="rgb(0,0,0)" stroke-linecap="butt" stroke-miterlimit="10.0"><text dominant-baseline="middle" transform="matrix(1.0000,0.0000,0.0000,1.0000,6.3872,43.1138)" stroke="none" text-anchor="middle">1</text></g></svg>