<?xml version="1.0" encoding="UTF-8"?>
<!DOCTYPE svg PUBLIC "-//W3C//DTD SVG 1.1//EN"
    "http://www.w3.org/Graphics/SVG/1.1/DTD/svg11.dtd"><svg xmlns="http://www.w3.org/2000/svg" height="400.0000" stroke-opacity="1" viewBox="0 0 398 400" font-size="1" width="398.0100" xmlns:xlink="http://www.w3.org/1999/xlink" stroke="rgb(0,0,0)" version="1.1"><defs></defs><g stroke-linejoin="miter" stroke-opacity="1.0" fill-opacity="1.0" stroke="rgb(0,0,0)" stroke-width="0.0" fill="rgb(255,255,255)" stroke-linecap="butt" stroke-miterlimit="10.0"><path d="M 398.0100,400.0000 l -0.0000,-398.0100 h -398.0100 l -0.0000,398.0100 Z"/></g><g stroke-linejoin="miter" stroke-opacity="1.0" fill-opacity="0.0" stroke="rgb(0,0,0)" stroke-width="1.5960149377722126" fill="rgb(0,0,0)" stroke-linecap="butt" stroke-miterlimit="10.0"><path d="M 398.0100,400.0000 l -0.0000,-398.0100 h -398.0100 l -0.0000,398.0100 Z"/></g><g stroke-linejoin="miter" stroke-opacity="1.0" fill-opacity="0.0" stroke="rgb(0,0,0)" stroke-width="1.5960149377722126" fill="rgb(0,0,0)" stroke-linecap="butt" stroke-miterlimit="10.0"><path d="M 294.5274,320.3980 c 0.0000,-1.0991 -0.8910,-1.9900 -1.9900 -1.9900c -1.0991,-0.0000 -1.9900,0.8910 -1.9900 1.9900c -0.0000,1.0991 0.8910,1.9900 1.9900 1.9900c 1.0991,0.0000 1.9900,-0.8910 1.9900 -1.9900Z"/></g><g stroke-linejoin="miter" stroke-opacity="1.0" fill-opacity="1.0" font-size="19.900497512437813px" stroke="rgb(0,0,0)" stroke-width="1.5960149377722126" fill="rgb(0,0,0)" stroke-linecap="butt" stroke-miterlimit="10.0"><text dominant-baseline="middle" transform="matrix(1.0000,0.0000,0.0000,1.0000,278.6070,320.3980)" stroke="none" text-anchor="middle">5</text></g><g stroke-linejoin="miter" stroke-opacity="1.0" fill-opacity="0.0" stroke="rgb(0,0,0)" stroke-width="1.5960149377722126" fill="rgb(0,0,0)" stroke-linecap="butt" stroke-miterlimit="10.0"><path d="M 135.3234,200.9950 c 0.0000,-1.0991 -0.8910,-1.9900 -1.9900 -1.9900c -1.0991,-0.0000 -1.9900,0.8910 -1.9900 1.9900c -0.0000,1.0991 0.8910,1.9900 1.9900 1.9900c 1.0991,0.0000 1.9900,-0.8910 1.9900 -1.9900Z"/></g><g stroke-linejoin="miter" stroke-opacity="1.0" fill-opacity="1.0" font-size="19.900497512437813px" stroke="rgb(0,0,0)" stroke-width="1.5960149377722126" fill="rgb(0,0,0)" stroke-linecap="butt" stroke-miterlimit="10.0"><text dominant-baseline="middle" transform="matrix(1.0000,0.0000,0.0000,1.0000,119.4030,200.9950)" stroke="none" text-anchor="middle">4</text></g><g stroke-linejoin="miter" stroke-opacity="1.0" fill-opacity="0.0" stroke="rgb(0,0,0)" stroke-width="1.5960149377722126" fill="rgb(0,0,0)" stroke-linecap="butt" stroke-miterlimit="10.0"><path d="M 15.9204,1.9900 c 0.0000,-1.0991 -0.8910,-1.9900 -1.9900 -1.9900c -1.0991,-0.0000 -1.9900,0.8910 -1.9900 1.9900c -0.0000,1.0991 0.8910,1.9900 1.9900 1.9900c 1.0991,0.0000 1.9900,-0.8910 1.9900 -1.9900Z"/></g><g stroke-linejoin="miter" stroke-opacity="1.0" fill-opacity="1.0" font-size="19.900497512437813px" stroke="rgb(0,0,0)" stroke-width="1.5960149377722126" fill="rgb(0,0,0)" stroke-linecap="butt" stroke-miterlimit="10.0"><text dominant-baseline="middle" transform="matrix(1.0000,0.0000,0.0000,1.0000,0.0000,1.9900)" stroke="none" text-anchor="middle">3</text></g><g stroke-linejoin="miter" stroke-opacity="1.0" fill-opacity="0.0" stroke="rgb(0,0,0)" stroke-width="1.5960149377722126" fill="rgb(0,0,0)" stroke-linecap="butt" stroke-miterlimit="10.0"><path d="M 95.5224,121.3930 c 0.0000,-1.0991 -0.8910,-1.9900 -1.9900 -1.9900c -1.0991,-0.0000 -1.9900,0.8910 -1.9900 1.9900c -0.0000,1.0991 0.8910,1.9900 1.9900 1.9900c 1.0991,0.0000 1.9900,-0.8910 1.9900 -1.9900Z"/></g><g stroke-linejoin="miter" stroke-opacity="1.0" fill-opacity="1.0" font-size="19.900497512437813px" stroke="rgb(0,0,0)" stroke-width="1.5960149377722126" fill="rgb(0,0,0)" stroke-linecap="butt" stroke-miterlimit="10.0"><text dominant-baseline="middle" transform="matrix(1.0000,0.0000,0.0000,1.0000,79.6020,121.3930)" stroke="none" text-anchor="middle">2</text></g><g stroke-linejoin="miter" stroke-opacity="1.0" fill-opacity="0.0" stroke="rgb(0,0,0)" stroke-width="1.5960149377722126" fill="rgb(0,0,0)" stroke-linecap="butt" stroke-miterlimit="10.0"><path d="M 214.9254,200.9950 c 0.0000,-1.0991 -0.8910,-1.9900 -1.9900 -1.9900c -1.0991,-0.0000 -1.9900,0.8910 -1.9900 1.9900c -0.0000,1.0991 0.8910,1.9900 1.9900 1.9900c 1.0991,0.0000 1.9900,-0.8910 1.9900 -1.9900Z"/></g><g stroke-linejoin="miter" stroke-opacity="1.0" fill-opacity="1.0" font-size="19.900497512437813px" stroke="rgb(0,0,0)" stroke-width="1.5960149377722126" fill="rgb(0,0,0)" stroke-linecap="butt" stroke-miterlimit="10.0"><text dominant-baseline="middle" transform="matrix(1.0000,0.0000,0.0000,1.0000,199.0050,200.9950)" stroke="none" text-anchor="middle">1</text></g></svg>